<?xml version="1.0" encoding="UTF-8"?>
<svg xmlns="http://www.w3.org/2000/svg" width="720" height="242" viewBox="0 0 720 242" role="img" aria-labelledby="t d" font-family="system-ui, -apple-system, 'Segoe UI', Roboto, Helvetica, Arial, sans-serif">
<title id="t">gmv_eur by category</title>
<desc id="d">Bar chart, 6 bars: Electronics 221,621; Clothing 103,754; Home &amp; Kitchen 93,107; Sports 62,172; Beauty 38,542; Kids 33,449</desc>
<rect x="0.5" y="0.5" width="719" height="241" rx="10" fill="#FFFFFF" stroke="#E2E8F0"/>
<text x="20" y="26" font-size="15" font-weight="700" fill="#0E1726">gmv_eur by category</text>
<line x1="143.0" y1="42" x2="143.0" y2="224" stroke="#CBD5E1" stroke-width="1"/>
<text x="131" y="57" text-anchor="end" font-size="13" fill="#0E1726">Electronics</text>
<rect x="143.0" y="46" width="495.0" height="18" rx="3" fill="#FF6B35"/>
<text x="646.0" y="57" font-size="13" font-weight="600" fill="#0E1726">221,621</text>
<text x="131" y="87" text-anchor="end" font-size="13" fill="#0E1726">Clothing</text>
<rect x="143.0" y="76" width="231.7" height="18" rx="3" fill="#FF6B35"/>
<text x="382.7" y="87" font-size="13" font-weight="600" fill="#0E1726">103,754</text>
<text x="131" y="117" text-anchor="end" font-size="13" fill="#0E1726">Home &amp; Kitchen</text>
<rect x="143.0" y="106" width="208.0" height="18" rx="3" fill="#FF6B35"/>
<text x="359.0" y="117" font-size="13" font-weight="600" fill="#0E1726">93,107</text>
<text x="131" y="147" text-anchor="end" font-size="13" fill="#0E1726">Sports</text>
<rect x="143.0" y="136" width="138.9" height="18" rx="3" fill="#FF6B35"/>
<text x="289.9" y="147" font-size="13" font-weight="600" fill="#0E1726">62,172</text>
<text x="131" y="177" text-anchor="end" font-size="13" fill="#0E1726">Beauty</text>
<rect x="143.0" y="166" width="86.1" height="18" rx="3" fill="#FF6B35"/>
<text x="237.1" y="177" font-size="13" font-weight="600" fill="#0E1726">38,542</text>
<text x="131" y="207" text-anchor="end" font-size="13" fill="#0E1726">Kids</text>
<rect x="143.0" y="196" width="74.7" height="18" rx="3" fill="#FF6B35"/>
<text x="225.7" y="207" font-size="13" font-weight="600" fill="#0E1726">33,449</text>
</svg>
